<mxfile host="65bd71144e">
    <diagram id="5HH_52qe9aQlUETdQ1bU" name="第 1 页">
        <mxGraphModel dx="1072" dy="860" grid="1" gridSize="10" guides="1" tooltips="1" connect="1" arrows="1" fold="1" page="1" pageScale="1" pageWidth="827" pageHeight="1169" math="0" shadow="0">
            <root>
                <mxCell id="0"/>
                <mxCell id="1" parent="0"/>
                <mxCell id="14" value="" style="rounded=1;whiteSpace=wrap;html=1;glass=0;sketch=1;fontColor=#ffffff;strokeColor=#B20000;fillColor=none;shadow=1;" vertex="1" parent="1">
                    <mxGeometry x="90" y="200" width="320" height="470" as="geometry"/>
                </mxCell>
                <mxCell id="2" value="" style="rounded=0;whiteSpace=wrap;html=1;fillColor=#a20025;strokeColor=#6F0000;fontColor=#ffffff;sketch=1;" vertex="1" parent="1">
                    <mxGeometry x="110" y="320" width="120" height="330" as="geometry"/>
                </mxCell>
                <mxCell id="3" value="" style="rounded=1;whiteSpace=wrap;html=1;fillColor=#0050ef;strokeColor=#001DBC;fontColor=#ffffff;sketch=1;" vertex="1" parent="1">
                    <mxGeometry x="270" y="310" width="120" height="340" as="geometry"/>
                </mxCell>
                <mxCell id="4" value="&lt;b&gt;&lt;i&gt;&lt;u&gt;&lt;font style=&quot;font-size: 18px&quot;&gt;数字栈&lt;/font&gt;&lt;/u&gt;&lt;/i&gt;&lt;/b&gt;" style="text;html=1;strokeColor=none;align=center;verticalAlign=middle;whiteSpace=wrap;rounded=0;glass=1;sketch=1;fontColor=#FFFF66;" vertex="1" parent="1">
                    <mxGeometry x="130" y="610" width="80" height="20" as="geometry"/>
                </mxCell>
                <mxCell id="5" value="&lt;b&gt;&lt;i&gt;&lt;u&gt;&lt;font style=&quot;font-size: 18px&quot;&gt;符号栈&lt;br&gt;&lt;/font&gt;&lt;/u&gt;&lt;/i&gt;&lt;/b&gt;" style="text;html=1;strokeColor=none;align=center;verticalAlign=middle;whiteSpace=wrap;rounded=0;glass=1;sketch=1;fontColor=#FFFF66;" vertex="1" parent="1">
                    <mxGeometry x="290" y="610" width="80" height="20" as="geometry"/>
                </mxCell>
                <mxCell id="6" value="&lt;font style=&quot;font-size: 16px&quot;&gt;432&lt;/font&gt;" style="rounded=1;whiteSpace=wrap;html=1;glass=1;sketch=1;fontColor=#FFFF66;fillColor=none;" vertex="1" parent="1">
                    <mxGeometry x="120" y="555" width="100" height="30" as="geometry"/>
                </mxCell>
                <mxCell id="7" value="&lt;font style=&quot;font-size: 16px&quot;&gt;432&lt;/font&gt;" style="rounded=1;whiteSpace=wrap;html=1;glass=1;sketch=1;fontColor=#FFFF66;fillColor=none;" vertex="1" parent="1">
                    <mxGeometry x="120" y="510" width="100" height="30" as="geometry"/>
                </mxCell>
                <mxCell id="8" value="&lt;font style=&quot;font-size: 16px&quot;&gt;432&lt;/font&gt;" style="rounded=1;whiteSpace=wrap;html=1;glass=1;sketch=1;fontColor=#FFFF66;fillColor=none;" vertex="1" parent="1">
                    <mxGeometry x="120" y="410" width="100" height="30" as="geometry"/>
                </mxCell>
                <mxCell id="9" value="&lt;font style=&quot;font-size: 16px&quot;&gt;*&lt;/font&gt;" style="rounded=1;whiteSpace=wrap;html=1;glass=1;sketch=1;fontColor=#FFFF66;fillColor=none;" vertex="1" parent="1">
                    <mxGeometry x="280" y="555" width="100" height="30" as="geometry"/>
                </mxCell>
                <mxCell id="10" value="&lt;font style=&quot;font-size: 16px&quot;&gt;+&lt;/font&gt;" style="rounded=1;whiteSpace=wrap;html=1;glass=1;sketch=1;fontColor=#FFFF66;fillColor=none;" vertex="1" parent="1">
                    <mxGeometry x="280" y="460" width="100" height="30" as="geometry"/>
                </mxCell>
                <mxCell id="11" value="&lt;span style=&quot;font-size: 16px&quot;&gt;(&lt;/span&gt;" style="rounded=1;whiteSpace=wrap;html=1;glass=1;sketch=1;fontColor=#FFFF66;fillColor=none;" vertex="1" parent="1">
                    <mxGeometry x="280" y="510" width="100" height="30" as="geometry"/>
                </mxCell>
                <mxCell id="12" value="&lt;font style=&quot;font-size: 16px&quot;&gt;)&lt;/font&gt;" style="rounded=1;whiteSpace=wrap;html=1;glass=1;sketch=1;fontColor=#FFFF66;fillColor=none;" vertex="1" parent="1">
                    <mxGeometry x="280" y="410" width="100" height="30" as="geometry"/>
                </mxCell>
                <mxCell id="15" style="edgeStyle=orthogonalEdgeStyle;rounded=0;orthogonalLoop=1;jettySize=auto;html=1;entryX=0.5;entryY=0;entryDx=0;entryDy=0;fontColor=#FFFF66;sketch=1;fillColor=#e3c800;strokeColor=#B09500;" edge="1" parent="1" source="13" target="14">
                    <mxGeometry relative="1" as="geometry"/>
                </mxCell>
                <mxCell id="13" value="&lt;font style=&quot;font-size: 24px&quot;&gt;432*(432+432)&lt;/font&gt;" style="rounded=0;whiteSpace=wrap;html=1;glass=0;sketch=1;fontColor=#ffffff;fillColor=#60a917;strokeColor=#2D7600;" vertex="1" parent="1">
                    <mxGeometry x="90" y="100" width="320" height="60" as="geometry"/>
                </mxCell>
                <mxCell id="17" style="edgeStyle=orthogonalEdgeStyle;rounded=1;sketch=1;orthogonalLoop=1;jettySize=auto;html=1;entryX=0.5;entryY=0;entryDx=0;entryDy=0;fontColor=#FFFF66;strokeColor=#FFFF00;" edge="1" parent="1" source="14" target="16">
                    <mxGeometry relative="1" as="geometry"/>
                </mxCell>
                <mxCell id="16" value="&lt;font style=&quot;font-size: 24px&quot;&gt;432 432 432 + *&lt;/font&gt;" style="rounded=0;whiteSpace=wrap;html=1;glass=0;sketch=1;fontColor=#ffffff;fillColor=#60a917;strokeColor=#2D7600;" vertex="1" parent="1">
                    <mxGeometry x="90" y="710" width="320" height="60" as="geometry"/>
                </mxCell>
                <mxCell id="18" value="&lt;font style=&quot;font-size: 20px&quot; color=&quot;#ff0080&quot;&gt;&lt;b&gt;&lt;i&gt;RPN&lt;/i&gt;&lt;/b&gt;&lt;/font&gt;" style="rounded=0;whiteSpace=wrap;html=1;shadow=1;glass=0;sketch=1;fontColor=#FFFF66;fillColor=none;" vertex="1" parent="1">
                    <mxGeometry x="165" y="230" width="170" height="40" as="geometry"/>
                </mxCell>
            </root>
        </mxGraphModel>
    </diagram>
</mxfile>